<svg width="50" height="50" viewBox="0 0 50 50" fill="none" xmlns="http://www.w3.org/2000/svg">
<path d="M45.8333 17.0041V17.1562C45.8333 18.9479 45.8333 19.8458 45.402 20.5791C44.9708 21.3125 44.1854 21.7479 42.6187 22.6208L40.9666 23.5375C42.1041 19.6875 42.4854 15.55 42.625 12.0125L42.6458 11.5521L42.65 11.4437C44.0062 11.9146 44.7687 12.2666 45.2437 12.925C45.8333 13.7437 45.8333 14.8312 45.8333 17.0041ZM4.16663 17.0041V17.1562C4.16663 18.9479 4.16663 19.8458 4.59788 20.5791C5.02913 21.3125 5.81454 21.7479 7.38121 22.6208L9.03538 23.5375C7.89579 19.6875 7.51454 15.55 7.37496 12.0125L7.35413 11.5521L7.35204 11.4437C5.99371 11.9146 5.23121 12.2666 4.75621 12.925C4.16663 13.7437 4.16663 14.8333 4.16663 17.0041Z" fill="#898989"/>
<path fill-rule="evenodd" clip-rule="evenodd" d="M25 4.16663C28.7167 4.16663 31.7771 4.49371 34.1187 4.88954C36.4916 5.28954 37.6771 5.48954 38.6687 6.71038C39.6604 7.93121 39.6062 9.24996 39.5021 11.8875C39.1437 20.9479 37.1896 32.2625 26.5625 33.2625V40.625H29.5416C30.0231 40.6252 30.4896 40.7923 30.8618 41.0976C31.234 41.403 31.489 41.8279 31.5833 42.3L31.9791 44.2708H37.5C37.9144 44.2708 38.3118 44.4354 38.6048 44.7284C38.8979 45.0215 39.0625 45.4189 39.0625 45.8333C39.0625 46.2477 38.8979 46.6451 38.6048 46.9381C38.3118 47.2312 37.9144 47.3958 37.5 47.3958H12.5C12.0856 47.3958 11.6882 47.2312 11.3951 46.9381C11.1021 46.6451 10.9375 46.2477 10.9375 45.8333C10.9375 45.4189 11.1021 45.0215 11.3951 44.7284C11.6882 44.4354 12.0856 44.2708 12.5 44.2708H18.0208L18.4167 42.3C18.511 41.8279 18.766 41.403 19.1382 41.0976C19.5104 40.7923 19.9769 40.6252 20.4583 40.625H23.4375V33.2625C12.8125 32.2625 10.8583 20.9458 10.5 11.8875C10.3937 9.24996 10.3417 7.92913 11.3333 6.71038C12.3229 5.48954 13.5083 5.28954 15.8812 4.88954C18.8954 4.39554 21.9456 4.15373 25 4.16663ZM26.9833 12.9145L26.7792 12.5479C25.9875 11.125 25.5916 10.4166 25 10.4166C24.4083 10.4166 24.0125 11.125 23.2208 12.5479L23.0167 12.9145C22.7916 13.3187 22.6791 13.5187 22.5041 13.652C22.3271 13.7854 22.1083 13.8354 21.6708 13.9333L21.275 14.025C19.7375 14.3729 18.9687 14.5458 18.7854 15.1333C18.6021 15.7229 19.1271 16.3354 20.175 17.5604L20.4458 17.877C20.7437 18.225 20.8937 18.3979 20.9604 18.6145C21.0271 18.8312 21.0041 19.0625 20.9604 19.527L20.9187 19.95C20.7604 21.5854 20.6812 22.4041 21.1583 22.7666C21.6375 23.1291 22.3583 22.7979 23.7979 22.1354L24.1687 21.9645C24.5791 21.777 24.7833 21.6833 25 21.6833C25.2166 21.6833 25.4208 21.777 25.8312 21.9645L26.2021 22.1354C27.6416 22.8 28.3625 23.1291 28.8416 22.7666C29.3208 22.4041 29.2396 21.5854 29.0812 19.95L29.0396 19.527C28.9958 19.0625 28.9729 18.8312 29.0396 18.6145C29.1062 18.4 29.2562 18.225 29.5541 17.877L29.825 17.5604C30.8729 16.3354 31.3979 15.7229 31.2146 15.1333C31.0312 14.5458 30.2625 14.3729 28.725 14.025L28.3291 13.9333C27.8916 13.8354 27.6729 13.7875 27.4958 13.652C27.3208 13.5187 27.2083 13.3187 26.9833 12.9145Z" fill="#898989"/>
</svg>
