<svg width="50" height="50" viewBox="0 0 50 50" fill="none" xmlns="http://www.w3.org/2000/svg">
<path d="M15.625 18.75H4.16663V31.25H15.625L21.875 25L15.625 18.75ZM12.5 27.0833H8.33329V22.9166H12.5V27.0833ZM31.25 15.625V4.16663H18.75V15.625L25 21.875L31.25 15.625ZM22.9166 8.33329H27.0833V12.5H22.9166V8.33329ZM18.75 34.375V45.8333H31.25V34.375L25 28.125L18.75 34.375ZM27.0833 41.6666H22.9166V37.5H27.0833V41.6666ZM34.375 18.75L28.125 25L34.375 31.25H45.8333V18.75H34.375ZM41.6666 27.0833H37.5V22.9166H41.6666V27.0833Z" fill="#F8F8F8"/>
</svg>
