<svg width="50" height="50" viewBox="0 0 50 50" fill="none" xmlns="http://www.w3.org/2000/svg">
<path d="M37.3731 2.65625C37.8418 2.87598 38.2031 3.16211 38.4961 3.5293C35.8301 5.4707 34.2481 8.62207 33.3106 11.8164C32.1777 15.6641 31.9336 19.6484 31.9336 22.0508H33.6914C33.6914 19.7656 33.9356 15.9082 34.9902 12.3145C35.8301 9.46387 37.168 6.83398 39.2285 5.18262C39.3457 5.66504 39.4141 6.2041 39.4336 6.7959C39.4922 9.01074 38.8867 11.8848 38.0274 14.7656C37.1582 17.6563 36.0449 20.5664 35.1367 22.959C34.7656 23.9551 33.7012 27.9102 34.0234 28.3008C35.5762 30.4297 36.6211 32.9883 36.6211 35.7227V36.084L36.875 36.3477C38.2715 37.7344 38.4277 38.8379 38.0176 40.0195C37.5977 41.2012 36.4258 42.4902 34.8438 43.5937C31.6895 45.8203 26.9531 47.3437 25 47.3437C23.0469 47.3437 18.3106 45.8203 15.1563 43.5937C13.5742 42.4902 12.4024 41.2012 11.9824 40.0195C11.5723 38.8379 11.7285 37.7344 13.125 36.3477L13.3789 36.084V35.7227C13.3789 32.9883 14.4238 30.4297 15.9766 28.3008C16.2988 27.9102 15.2344 23.9551 14.8633 22.959C13.9551 20.5664 12.8418 17.6563 11.9727 14.7656C11.1133 11.8848 10.5078 9.01465 10.5664 6.79785C10.5859 6.20215 10.6543 5.66504 10.7715 5.18652C12.832 6.83691 14.1699 9.46387 15.0098 12.3145C16.0645 15.9082 16.3086 19.7656 16.3086 22.0508H18.0664C18.0664 19.6484 17.8223 15.6641 16.6895 11.8164C15.752 8.62305 14.1699 5.46973 11.5039 3.52637C11.7969 3.16504 12.1582 2.87207 12.627 2.65723C12.9785 2.74512 13.916 3.25293 14.9121 4.30762C16.0059 5.46973 17.2266 7.17871 18.2813 9.20019C20.4004 13.2422 21.8945 18.5547 21.0059 23.457C22.2168 23.0762 23.6133 22.8809 25 22.8809C26.3867 22.8809 27.7832 23.0762 28.9941 23.457C28.1055 18.5547 29.5996 13.2422 31.7188 9.19922C32.7734 7.17578 33.9941 5.46973 35.0879 4.30371C36.084 3.24902 37.0215 2.74707 37.3731 2.65625ZM29.6875 30.1562C28.3496 30.1562 27.2461 31.2598 27.2461 32.5977C27.2461 33.9355 28.3496 35.0391 29.6875 35.0391C31.0254 35.0391 32.1289 33.9355 32.1289 32.5977C32.1289 31.2598 31.0254 30.1562 29.6875 30.1562ZM20.3125 30.1562C18.9746 30.1562 17.8711 31.2598 17.8711 32.5977C17.8711 33.9355 18.9746 35.0391 20.3125 35.0391C21.6504 35.0391 22.7539 33.9355 22.7539 32.5977C22.7539 31.2598 21.6504 30.1562 20.3125 30.1562ZM29.6875 31.9141C30.0781 31.9141 30.3711 32.207 30.3711 32.5977C30.3711 32.9883 30.0781 33.2812 29.6875 33.2812C29.2969 33.2812 29.0039 32.9883 29.0039 32.5977C29.0039 32.207 29.2969 31.9141 29.6875 31.9141ZM20.3125 31.9141C20.7031 31.9141 20.9961 32.207 20.9961 32.5977C20.9961 32.9883 20.7031 33.2812 20.3125 33.2812C19.9219 33.2812 19.6289 32.9883 19.6289 32.5977C19.6289 32.207 19.9219 31.9141 20.3125 31.9141ZM25 35.2344C24.1602 35.2344 23.3399 35.332 22.6172 35.5762C22.2559 35.6934 21.9238 35.8398 21.6211 36.0937C21.3086 36.3379 21.0352 36.748 20.9961 37.2266L20.957 37.8125L24.1211 39.3945V42.0312C24.0918 42.0508 23.9063 42.0996 23.5938 42.0312C22.959 41.875 21.9238 41.25 21.0449 39.9219L19.5801 40.8984C20.6543 42.5195 21.9629 43.457 23.1836 43.7402C23.7988 43.8867 24.3848 44.0723 25 44.0723C25.6152 44.0723 26.2012 43.8867 26.8164 43.7402C28.0371 43.457 29.3457 42.5195 30.4199 40.8984L28.9551 39.9219C28.0762 41.25 27.041 41.875 26.4063 42.0312C26.0938 42.0996 25.9082 42.0508 25.8789 42.0312V39.3945L29.043 37.8125L29.0039 37.2266C28.9649 36.748 28.6914 36.3379 28.3789 36.0937C28.0762 35.8398 27.7441 35.6934 27.3828 35.5762C26.6602 35.332 25.8399 35.2344 25 35.2344ZM25 36.9922C25.5176 36.9922 26.0059 37.0605 26.4258 37.1582L25 37.8613L23.5742 37.1582C23.9941 37.0605 24.4824 36.9922 25 36.9922Z" fill="#F8F8F8"/>
</svg>
