<svg width="50" height="50" viewBox="0 0 50 50" fill="none" xmlns="http://www.w3.org/2000/svg">
<path fill-rule="evenodd" clip-rule="evenodd" d="M8.59375 6.25C6.43542 6.25 4.6875 8 4.6875 10.1562V37.5C4.6875 39.1576 5.34598 40.7473 6.51808 41.9194C7.69019 43.0915 9.2799 43.75 10.9375 43.75H42.1875C40.5299 43.75 38.9402 43.0915 37.7681 41.9194C36.596 40.7473 35.9375 39.1576 35.9375 37.5V10.1562C35.9375 7.99792 34.1875 6.25 32.0312 6.25H8.59375ZM25 20.3125C24.5856 20.3125 24.1882 20.4771 23.8951 20.7701C23.6021 21.0632 23.4375 21.4606 23.4375 21.875C23.4375 22.2894 23.6021 22.6868 23.8951 22.9799C24.1882 23.2729 24.5856 23.4375 25 23.4375H28.125C28.5394 23.4375 28.9368 23.2729 29.2299 22.9799C29.5229 22.6868 29.6875 22.2894 29.6875 21.875C29.6875 21.4606 29.5229 21.0632 29.2299 20.7701C28.9368 20.4771 28.5394 20.3125 28.125 20.3125H25ZM23.4375 15.625C23.4375 15.2106 23.6021 14.8132 23.8951 14.5201C24.1882 14.2271 24.5856 14.0625 25 14.0625H28.125C28.5394 14.0625 28.9368 14.2271 29.2299 14.5201C29.5229 14.8132 29.6875 15.2106 29.6875 15.625C29.6875 16.0394 29.5229 16.4368 29.2299 16.7299C28.9368 17.0229 28.5394 17.1875 28.125 17.1875H25C24.5856 17.1875 24.1882 17.0229 23.8951 16.7299C23.6021 16.4368 23.4375 16.0394 23.4375 15.625ZM12.5 26.5625C12.0856 26.5625 11.6882 26.7271 11.3951 27.0201C11.1021 27.3132 10.9375 27.7106 10.9375 28.125C10.9375 28.5394 11.1021 28.9368 11.3951 29.2299C11.6882 29.5229 12.0856 29.6875 12.5 29.6875H28.125C28.5394 29.6875 28.9368 29.5229 29.2299 29.2299C29.5229 28.9368 29.6875 28.5394 29.6875 28.125C29.6875 27.7106 29.5229 27.3132 29.2299 27.0201C28.9368 26.7271 28.5394 26.5625 28.125 26.5625H12.5ZM10.9375 34.375C10.9375 33.9606 11.1021 33.5632 11.3951 33.2701C11.6882 32.9771 12.0856 32.8125 12.5 32.8125H28.125C28.5394 32.8125 28.9368 32.9771 29.2299 33.2701C29.5229 33.5632 29.6875 33.9606 29.6875 34.375C29.6875 34.7894 29.5229 35.1868 29.2299 35.4799C28.9368 35.7729 28.5394 35.9375 28.125 35.9375H12.5C12.0856 35.9375 11.6882 35.7729 11.3951 35.4799C11.1021 35.1868 10.9375 34.7894 10.9375 34.375ZM12.5 14.0625C12.0856 14.0625 11.6882 14.2271 11.3951 14.5201C11.1021 14.8132 10.9375 15.2106 10.9375 15.625V21.875C10.9375 22.7375 11.6375 23.4375 12.5 23.4375H18.75C19.1644 23.4375 19.5618 23.2729 19.8549 22.9799C20.1479 22.6868 20.3125 22.2894 20.3125 21.875V15.625C20.3125 15.2106 20.1479 14.8132 19.8549 14.5201C19.5618 14.2271 19.1644 14.0625 18.75 14.0625H12.5Z" fill="#898989"/>
<path d="M39.0625 14.0625H42.9687C44.2625 14.0625 45.3125 15.1125 45.3125 16.4062V37.5C45.3125 38.3288 44.9833 39.1237 44.3972 39.7097C43.8112 40.2958 43.0163 40.625 42.1875 40.625C41.3587 40.625 40.5638 40.2958 39.9778 39.7097C39.3917 39.1237 39.0625 38.3288 39.0625 37.5V14.0625Z" fill="#898989"/>
</svg>
