<svg width="50" height="50" viewBox="0 0 50 50" fill="none" xmlns="http://www.w3.org/2000/svg">
<path fill-rule="evenodd" clip-rule="evenodd" d="M6.25 25C6.25 22.5377 6.73498 20.0995 7.67726 17.8247C8.61953 15.5498 10.0006 13.4828 11.7417 11.7417C13.4828 10.0006 15.5498 8.61953 17.8247 7.67726C20.0995 6.73498 22.5377 6.25 25 6.25C27.4623 6.25 29.9005 6.73498 32.1753 7.67726C34.4502 8.61953 36.5172 10.0006 38.2582 11.7417C39.9993 13.4828 41.3805 15.5498 42.3227 17.8247C43.265 20.0995 43.75 22.5377 43.75 25C43.75 29.9728 41.7746 34.7419 38.2582 38.2582C34.7419 41.7746 29.9728 43.75 25 43.75C20.0272 43.75 15.2581 41.7746 11.7417 38.2582C8.22544 34.7419 6.25 29.9728 6.25 25ZM10.5625 27.0833C11.0642 30.5546 12.7997 33.7289 15.4512 36.0248C18.1027 38.3206 21.4927 39.5843 25 39.5843C28.5073 39.5843 31.8973 38.3206 34.5488 36.0248C37.2003 33.7289 38.9358 30.5546 39.4375 27.0833H30.8958C30.4654 28.3032 29.6672 29.3595 28.6112 30.1067C27.5553 30.8539 26.2936 31.2551 25 31.2551C23.7064 31.2551 22.4447 30.8539 21.3887 30.1067C20.3328 29.3595 19.5346 28.3032 19.1042 27.0833H10.5625ZM39.4375 22.9167C38.939 19.4429 37.2047 16.2654 34.5529 13.9669C31.901 11.6685 28.5093 10.4032 25 10.4032C21.4907 10.4032 18.099 11.6685 15.4471 13.9669C12.7953 16.2654 11.061 19.4429 10.5625 22.9167H19.1042C19.5346 21.6968 20.3328 20.6405 21.3887 19.8933C22.4447 19.1461 23.7064 18.7449 25 18.7449C26.2936 18.7449 27.5553 19.1461 28.6112 19.8933C29.6672 20.6405 30.4654 21.6968 30.8958 22.9167H39.4375ZM25 27.0833C25.5525 27.0833 26.0824 26.8638 26.4731 26.4731C26.8638 26.0824 27.0833 25.5525 27.0833 25C27.0833 24.4475 26.8638 23.9176 26.4731 23.5269C26.0824 23.1362 25.5525 22.9167 25 22.9167C24.4475 22.9167 23.9176 23.1362 23.5269 23.5269C23.1362 23.9176 22.9167 24.4475 22.9167 25C22.9167 25.5525 23.1362 26.0824 23.5269 26.4731C23.9176 26.8638 24.4475 27.0833 25 27.0833Z" fill="#F8F8F8"/>
</svg>
