<svg width="50" height="50" viewBox="0 0 50 50" fill="none" xmlns="http://www.w3.org/2000/svg">
<path d="M21.875 35.7292L30.1667 30.9792C31.5625 30.1875 31.5625 28.1667 30.1667 27.3542L21.875 22.6042C20.4792 21.8125 18.75 22.8334 18.75 24.4167V33.8959C18.75 35.5 20.4792 36.5209 21.875 35.7292ZM43.75 12.5H27.9375L34.0625 6.37504C34.4792 5.95837 34.4792 5.31254 34.0625 4.89587C33.6459 4.47921 33 4.47921 32.5834 4.89587L25 12.4792L17.4167 4.89587C17 4.47921 16.3542 4.47921 15.9375 4.89587C15.5209 5.31254 15.5209 5.95837 15.9375 6.37504L22.0625 12.5H6.25004C5.14497 12.5 4.08516 12.939 3.30376 13.7204C2.52236 14.5018 2.08337 15.5616 2.08337 16.6667V41.6667C2.08337 43.9584 3.95837 45.8334 6.25004 45.8334H43.75C46.0417 45.8334 47.9167 43.9584 47.9167 41.6667V16.6667C47.9167 15.5616 47.4777 14.5018 46.6963 13.7204C45.9149 12.939 44.8551 12.5 43.75 12.5ZM41.6667 41.6667H8.33337C7.18754 41.6667 6.25004 40.7292 6.25004 39.5834V18.75C6.25004 17.6042 7.18754 16.6667 8.33337 16.6667H41.6667C42.8125 16.6667 43.75 17.6042 43.75 18.75V39.5834C43.75 40.7292 42.8125 41.6667 41.6667 41.6667Z" fill="#F8F8F8"/>
</svg>
